<mxfile host="Electron" agent="Mozilla/5.0 (Windows NT 10.0; Win64; x64) AppleWebKit/537.36 (KHTML, like Gecko) draw.io/28.1.2 Chrome/138.0.7204.243 Electron/37.4.0 Safari/537.36" version="28.1.2">
  <diagram name="第 1 页" id="VgEC-wI8NVGvwVmfkITp">
    <mxGraphModel dx="1288" dy="915" grid="1" gridSize="10" guides="1" tooltips="1" connect="1" arrows="1" fold="1" page="1" pageScale="1" pageWidth="827" pageHeight="1169" math="0" shadow="0">
      <root>
        <mxCell id="0" />
        <mxCell id="1" parent="0" />
        <mxCell id="YmU_lxn8cp2hs8feeezL-1" value="&lt;p style=&quot;margin:0px;margin-top:4px;text-align:center;&quot;&gt;&lt;b&gt;GlucoseView&lt;/b&gt;&lt;/p&gt;&lt;hr style=&quot;border-style:solid;&quot;&gt;&lt;p style=&quot;margin:0px;margin-left:6px;&quot;&gt;+ currentReading: Float&lt;/p&gt;&lt;hr style=&quot;border-style:solid;&quot;&gt;&lt;p style=&quot;margin:0px;margin-left:6px;&quot;&gt;+ displayGlucoseHistory(): void&lt;br/&gt;+ submitReading(): void&lt;/p&gt;" style="verticalAlign=top;align=left;overflow=fill;html=1;whiteSpace=wrap;strokeColor=#36393d;spacingTop=10;fontFamily=Helvetica;fontSize=12;fontStyle=1;fillColor=#cce5ff;" vertex="1" parent="1">
          <mxGeometry x="420" y="350" width="260" height="130" as="geometry" />
        </mxCell>
        <mxCell id="YmU_lxn8cp2hs8feeezL-2" value="&lt;p style=&quot;margin:0px;margin-top:4px;text-align:center;&quot;&gt;&lt;b&gt;MealLoggingView&lt;/b&gt;&lt;/p&gt;&lt;hr style=&quot;border-style:solid;&quot;&gt;&lt;p style=&quot;margin:0px;margin-left:6px;&quot;&gt;+ capturedImage: Image?&lt;/p&gt;&lt;hr style=&quot;border-style:solid;&quot;&gt;&lt;p style=&quot;margin:0px;margin-left:6px;&quot;&gt;+ captureMealPhoto(): void&lt;br/&gt;+ displayMealHistory(): void&lt;/p&gt;" style="verticalAlign=top;align=left;overflow=fill;html=1;whiteSpace=wrap;strokeColor=#36393d;spacingTop=10;fontFamily=Helvetica;fontSize=12;fontStyle=1;fillColor=#cce5ff;" vertex="1" parent="1">
          <mxGeometry x="420" y="555" width="260" height="130" as="geometry" />
        </mxCell>
        <mxCell id="YmU_lxn8cp2hs8feeezL-3" value="&lt;p style=&quot;margin:0px;margin-top:4px;text-align:center;&quot;&gt;&lt;b&gt;ActivitySyncView&lt;/b&gt;&lt;/p&gt;&lt;hr style=&quot;border-style:solid;&quot;&gt;&lt;p style=&quot;margin:0px;margin-left:6px;&quot;&gt;+ stepCount: Int&lt;/p&gt;&lt;hr style=&quot;border-style:solid;&quot;&gt;&lt;p style=&quot;margin:0px;margin-left:6px;&quot;&gt;+ displayActivitySummary(): void&lt;/p&gt;" style="verticalAlign=top;align=left;overflow=fill;html=1;whiteSpace=wrap;strokeColor=#36393d;spacingTop=10;fontFamily=Helvetica;fontSize=12;fontStyle=1;fillColor=#cce5ff;" vertex="1" parent="1">
          <mxGeometry x="430" y="955" width="260" height="120" as="geometry" />
        </mxCell>
        <mxCell id="YmU_lxn8cp2hs8feeezL-4" value="&lt;p style=&quot;margin:0px;margin-top:4px;text-align:center;&quot;&gt;&lt;b&gt;InsightsView&lt;/b&gt;&lt;/p&gt;&lt;hr style=&quot;border-style:solid;&quot;&gt;&lt;p style=&quot;margin:0px;margin-left:6px;&quot;&gt;+ insightsList: List&lt;String&gt;&lt;/p&gt;&lt;hr style=&quot;border-style:solid;&quot;&gt;&lt;p style=&quot;margin:0px;margin-left:6px;&quot;&gt;+ displayInsights(): void&lt;/p&gt;" style="verticalAlign=top;align=left;overflow=fill;html=1;whiteSpace=wrap;strokeColor=#36393d;spacingTop=10;fontFamily=Helvetica;fontSize=12;fontStyle=1;fillColor=#cce5ff;" vertex="1" parent="1">
          <mxGeometry x="430" y="1320" width="260" height="120" as="geometry" />
        </mxCell>
        <mxCell id="YmU_lxn8cp2hs8feeezL-5" value="&lt;p style=&quot;margin:0px;margin-top:4px;text-align:center;&quot;&gt;&lt;b&gt;GlucoseViewModel&lt;/b&gt;&lt;/p&gt;&lt;hr style=&quot;border-style:solid;&quot;&gt;&lt;p style=&quot;margin:0px;margin-left:6px;&quot;&gt;- repo: GlucoseRepository&lt;br/&gt;+ glucoseData: List&lt;GlucoseEntry&gt;&lt;/p&gt;&lt;hr style=&quot;border-style:solid;&quot;&gt;&lt;p style=&quot;margin:0px;margin-left:6px;&quot;&gt;+ loadGlucoseData(): void&lt;br/&gt;+ addGlucoseReading(v: Float): void&lt;/p&gt;" style="verticalAlign=top;align=left;overflow=fill;html=1;whiteSpace=wrap;strokeColor=#36393d;spacingTop=10;fontFamily=Helvetica;fontSize=12;fontStyle=1;fillColor=#cce5ff;" vertex="1" parent="1">
          <mxGeometry x="750" y="340" width="280" height="150" as="geometry" />
        </mxCell>
        <mxCell id="YmU_lxn8cp2hs8feeezL-6" value="&lt;p style=&quot;margin:0px;margin-top:4px;text-align:center;&quot;&gt;&lt;b&gt;MealViewModel&lt;/b&gt;&lt;/p&gt;&lt;hr style=&quot;border-style:solid;&quot;&gt;&lt;p style=&quot;margin:0px;margin-left:6px;&quot;&gt;- repo: MealRepository&lt;br/&gt;+ mealData: List&lt;Meal&gt;&lt;/p&gt;&lt;hr style=&quot;border-style:solid;&quot;&gt;&lt;p style=&quot;margin:0px;margin-left:6px;&quot;&gt;+ loadMealData(): void&lt;br/&gt;+ logMeal(m: Meal): void&lt;/p&gt;" style="verticalAlign=top;align=left;overflow=fill;html=1;whiteSpace=wrap;strokeColor=#36393d;spacingTop=10;fontFamily=Helvetica;fontSize=12;fontStyle=1;fillColor=#cce5ff;" vertex="1" parent="1">
          <mxGeometry x="750" y="550" width="280" height="140" as="geometry" />
        </mxCell>
        <mxCell id="YmU_lxn8cp2hs8feeezL-7" value="&lt;p style=&quot;margin:0px;margin-top:4px;text-align:center;&quot;&gt;&lt;b&gt;ActivityViewModel&lt;/b&gt;&lt;/p&gt;&lt;hr style=&quot;border-style:solid;&quot;&gt;&lt;p style=&quot;margin:0px;margin-left:6px;&quot;&gt;- repo: ActivityRepository&lt;br/&gt;+ activityData: List&lt;ActivityEntry&gt;&lt;/p&gt;&lt;hr style=&quot;border-style:solid;&quot;&gt;&lt;p style=&quot;margin:0px;margin-left:6px;&quot;&gt;+ syncActivityData(): void&lt;br/&gt;+ getActivitySummary(): ActivityEntry&lt;/p&gt;" style="verticalAlign=top;align=left;overflow=fill;html=1;whiteSpace=wrap;strokeColor=#36393d;spacingTop=10;fontFamily=Helvetica;fontSize=12;fontStyle=1;fillColor=#cce5ff;" vertex="1" parent="1">
          <mxGeometry x="760" y="940" width="280" height="150" as="geometry" />
        </mxCell>
        <mxCell id="YmU_lxn8cp2hs8feeezL-8" value="&lt;p style=&quot;margin:0px;margin-top:4px;text-align:center;&quot;&gt;&lt;b&gt;InsightsViewModel&lt;/b&gt;&lt;/p&gt;&lt;hr style=&quot;border-style:solid;&quot;&gt;&lt;p style=&quot;margin:0px;margin-left:6px;&quot;&gt;- repo: InsightRepository&lt;br/&gt;- engine: InsightsEngine&lt;br/&gt;+ insightsData: List&lt;Insight&gt;&lt;/p&gt;&lt;hr style=&quot;border-style:solid;&quot;&gt;&lt;p style=&quot;margin:0px;margin-left:6px;&quot;&gt;+ generateInsights(): void&lt;br/&gt;+ getLatestAlerts(): List&lt;String&gt;&lt;/p&gt;" style="verticalAlign=top;align=left;overflow=fill;html=1;whiteSpace=wrap;strokeColor=#36393d;spacingTop=10;fontFamily=Helvetica;fontSize=12;fontStyle=1;fillColor=#cce5ff;" vertex="1" parent="1">
          <mxGeometry x="760" y="1300" width="280" height="160" as="geometry" />
        </mxCell>
        <mxCell id="YmU_lxn8cp2hs8feeezL-9" value="&lt;p style=&quot;margin:0px;margin-top:4px;text-align:center;&quot;&gt;&lt;b&gt;GlucoseRepository&lt;/b&gt;&lt;/p&gt;&lt;hr style=&quot;border-style:solid;&quot;&gt;&lt;p style=&quot;margin:0px;margin-left:6px;&quot;&gt;- store: LocalStore&lt;/p&gt;&lt;hr style=&quot;border-style:solid;&quot;&gt;&lt;p style=&quot;margin:0px;margin-left:6px;&quot;&gt;+ save(e: GlucoseEntry): void&lt;br/&gt;+ findRange(d1,d2): List&lt;GlucoseEntry&gt;&lt;/p&gt;" style="verticalAlign=top;align=left;overflow=fill;html=1;whiteSpace=wrap;strokeColor=#36393d;spacingTop=10;fontFamily=Helvetica;fontSize=12;fontStyle=1;fillColor=#cce5ff;" vertex="1" parent="1">
          <mxGeometry x="1220" y="340" width="280" height="150" as="geometry" />
        </mxCell>
        <mxCell id="YmU_lxn8cp2hs8feeezL-10" value="&lt;p style=&quot;margin:0px;margin-top:4px;text-align:center;&quot;&gt;&lt;b&gt;MealRepository&lt;/b&gt;&lt;/p&gt;&lt;hr style=&quot;border-style:solid;&quot;&gt;&lt;p style=&quot;margin:0px;margin-left:6px;&quot;&gt;- store: LocalStore&lt;/p&gt;&lt;hr style=&quot;border-style:solid;&quot;&gt;&lt;p style=&quot;margin:0px;margin-left:6px;&quot;&gt;+ save(m: Meal): void&lt;br/&gt;+ findByDate(d): List&lt;Meal&gt;&lt;/p&gt;" style="verticalAlign=top;align=left;overflow=fill;html=1;whiteSpace=wrap;strokeColor=#36393d;spacingTop=10;fontFamily=Helvetica;fontSize=12;fontStyle=1;fillColor=#cce5ff;" vertex="1" parent="1">
          <mxGeometry x="1220" y="550" width="280" height="140" as="geometry" />
        </mxCell>
        <mxCell id="YmU_lxn8cp2hs8feeezL-11" value="&lt;p style=&quot;margin:0px;margin-top:4px;text-align:center;&quot;&gt;&lt;b&gt;ActivityRepository&lt;/b&gt;&lt;/p&gt;&lt;hr style=&quot;border-style:solid;&quot;&gt;&lt;p style=&quot;margin:0px;margin-left:6px;&quot;&gt;- store: LocalStore&lt;/p&gt;&lt;hr style=&quot;border-style:solid;&quot;&gt;&lt;p style=&quot;margin:0px;margin-left:6px;&quot;&gt;+ syncSince(d): List&lt;ActivityEntry&gt;&lt;br/&gt;+ save(a: ActivityEntry): void&lt;/p&gt;" style="verticalAlign=top;align=left;overflow=fill;html=1;whiteSpace=wrap;strokeColor=#36393d;spacingTop=10;fontFamily=Helvetica;fontSize=12;fontStyle=1;fillColor=#cce5ff;" vertex="1" parent="1">
          <mxGeometry x="1220" y="940" width="280" height="150" as="geometry" />
        </mxCell>
        <mxCell id="YmU_lxn8cp2hs8feeezL-12" value="&lt;p style=&quot;margin:0px;margin-top:4px;text-align:center;&quot;&gt;&lt;b&gt;InsightRepository&lt;/b&gt;&lt;/p&gt;&lt;hr style=&quot;border-style:solid;&quot;&gt;&lt;p style=&quot;margin:0px;margin-left:6px;&quot;&gt;- store: LocalStore&lt;/p&gt;&lt;hr style=&quot;border-style:solid;&quot;&gt;&lt;p style=&quot;margin:0px;margin-left:6px;&quot;&gt;+ save(i: Insight): void&lt;br/&gt;+ latest(n): List&lt;Insight&gt;&lt;/p&gt;" style="verticalAlign=top;align=left;overflow=fill;html=1;whiteSpace=wrap;strokeColor=#36393d;spacingTop=10;fontFamily=Helvetica;fontSize=12;fontStyle=1;fillColor=#cce5ff;" vertex="1" parent="1">
          <mxGeometry x="1220" y="1310" width="280" height="140" as="geometry" />
        </mxCell>
        <mxCell id="YmU_lxn8cp2hs8feeezL-13" value="&lt;p style=&quot;margin:0px;margin-top:4px;text-align:center;&quot;&gt;&lt;b&gt;GlucoseEntry&lt;/b&gt;&lt;/p&gt;&lt;hr style=&quot;border-style:solid;&quot;&gt;&lt;p style=&quot;margin:0px;margin-left:6px;&quot;&gt;+ id: String&lt;br/&gt;+ value: Float&lt;br/&gt;+ timestamp: Date&lt;/p&gt;&lt;hr style=&quot;border-style:solid;&quot;&gt;&lt;p style=&quot;margin:0px;margin-left:6px;&quot;&gt;+ isValid(): Boolean&lt;/p&gt;" style="verticalAlign=top;align=left;overflow=fill;html=1;whiteSpace=wrap;strokeColor=#36393d;spacingTop=10;fontFamily=Helvetica;fontSize=12;fontStyle=1;fillColor=#cce5ff;" vertex="1" parent="1">
          <mxGeometry x="1230" y="150" width="260" height="130" as="geometry" />
        </mxCell>
        <mxCell id="YmU_lxn8cp2hs8feeezL-14" value="&lt;p style=&quot;margin:0px;margin-top:4px;text-align:center;&quot;&gt;&lt;b&gt;Meal&lt;/b&gt;&lt;/p&gt;&lt;hr style=&quot;border-style:solid;&quot;&gt;&lt;p style=&quot;margin:0px;margin-left:6px;&quot;&gt;+ id: String&lt;br/&gt;+ totalCalories: Float&lt;br/&gt;+ timestamp: Date&lt;/p&gt;&lt;hr style=&quot;border-style:solid;&quot;&gt;&lt;p style=&quot;margin:0px;margin-left:6px;&quot;&gt;+ addItem(item: MealItem): void&lt;/p&gt;" style="verticalAlign=top;align=left;overflow=fill;html=1;whiteSpace=wrap;strokeColor=#36393d;spacingTop=10;fontFamily=Helvetica;fontSize=12;fontStyle=1;fillColor=#cce5ff;" vertex="1" parent="1">
          <mxGeometry x="1230" y="760" width="260" height="130" as="geometry" />
        </mxCell>
        <mxCell id="YmU_lxn8cp2hs8feeezL-15" value="&lt;p style=&quot;margin:0px;margin-top:4px;text-align:center;&quot;&gt;&lt;b&gt;ActivityEntry&lt;/b&gt;&lt;/p&gt;&lt;hr style=&quot;border-style:solid;&quot;&gt;&lt;p style=&quot;margin:0px;margin-left:6px;&quot;&gt;+ id: String&lt;br/&gt;+ steps: Int&lt;br/&gt;+ energy: Float&lt;br/&gt;+ timestamp: Date&lt;/p&gt;&lt;hr style=&quot;border-style:solid;&quot;&gt;&lt;p style=&quot;margin:0px;margin-left:6px;&quot;&gt;+ fromProvider(raw)&lt;/p&gt;" style="verticalAlign=top;align=left;overflow=fill;html=1;whiteSpace=wrap;strokeColor=#36393d;spacingTop=10;fontFamily=Helvetica;fontSize=12;fontStyle=1;fillColor=#cce5ff;" vertex="1" parent="1">
          <mxGeometry x="1230" y="1140" width="260" height="140" as="geometry" />
        </mxCell>
        <mxCell id="YmU_lxn8cp2hs8feeezL-16" value="&lt;p style=&quot;margin:0px;margin-top:4px;text-align:center;&quot;&gt;&lt;b&gt;Insight&lt;/b&gt;&lt;/p&gt;&lt;hr style=&quot;border-style:solid;&quot;&gt;&lt;p style=&quot;margin:0px;margin-left:6px;&quot;&gt;+ id: String&lt;br/&gt;+ summary: String&lt;br/&gt;+ level: Severity&lt;br/&gt;+ timestamp: Date&lt;/p&gt;&lt;hr style=&quot;border-style:solid;&quot;&gt;&lt;p style=&quot;margin:0px;margin-left:6px;&quot;&gt;+ format(): String&lt;/p&gt;" style="verticalAlign=top;align=left;overflow=fill;html=1;whiteSpace=wrap;strokeColor=#36393d;spacingTop=10;fontFamily=Helvetica;fontSize=12;fontStyle=1;fillColor=#cce5ff;" vertex="1" parent="1">
          <mxGeometry x="1230" y="1510" width="260" height="140" as="geometry" />
        </mxCell>
        <mxCell id="YmU_lxn8cp2hs8feeezL-17" value="&lt;p style=&quot;margin:0px;margin-top:4px;text-align:center;&quot;&gt;&lt;b&gt;MealItem&lt;/b&gt;&lt;/p&gt;&lt;hr style=&quot;border-style:solid;&quot;&gt;&lt;p style=&quot;margin:0px;margin-left:6px;&quot;&gt;+ name: String&lt;br/&gt;+ qty: Float&lt;br/&gt;+ unit: String&lt;br/&gt;+ calories: Float&lt;/p&gt;&lt;hr style=&quot;border-style:solid;&quot;&gt;&lt;p style=&quot;margin:0px;margin-left:6px;&quot;&gt;+ kcal(): Float&lt;/p&gt;" style="verticalAlign=top;align=left;overflow=fill;html=1;whiteSpace=wrap;strokeColor=#36393d;spacingTop=10;fontFamily=Helvetica;fontSize=12;fontStyle=1;fillColor=#cce5ff;" vertex="1" parent="1">
          <mxGeometry x="940" y="765" width="220" height="120" as="geometry" />
        </mxCell>
        <mxCell id="YmU_lxn8cp2hs8feeezL-18" value="&lt;p style=&quot;margin:0px;margin-top:4px;text-align:center;&quot;&gt;&lt;b&gt;InsightsEngine&lt;/b&gt;&lt;/p&gt;&lt;hr style=&quot;border-style:solid;&quot;&gt;&lt;p style=&quot;margin:0px;margin-left:6px;&quot;&gt;- windowDays: Int&lt;/p&gt;&lt;hr style=&quot;border-style:solid;&quot;&gt;&lt;p style=&quot;margin:0px;margin-left:6px;&quot;&gt;+ generate(): List&lt;Insight&gt;&lt;/p&gt;" style="verticalAlign=top;align=left;overflow=fill;html=1;whiteSpace=wrap;strokeColor=#36393d;spacingTop=10;fontFamily=Helvetica;fontSize=12;fontStyle=1;fillColor=#cce5ff;" vertex="1" parent="1">
          <mxGeometry x="1950" y="680" width="280" height="90" as="geometry" />
        </mxCell>
        <mxCell id="YmU_lxn8cp2hs8feeezL-19" value="&lt;p style=&quot;margin:0px;margin-top:4px;text-align:center;&quot;&gt;&lt;b&gt;NotificationService&lt;/b&gt;&lt;/p&gt;&lt;hr style=&quot;border-style:solid;&quot;&gt;&lt;p style=&quot;margin:0px;margin-left:6px;&quot;&gt;+ channel: String&lt;/p&gt;&lt;hr style=&quot;border-style:solid;&quot;&gt;&lt;p style=&quot;margin:0px;margin-left:6px;&quot;&gt;+ push(msg: String): void&lt;/p&gt;" style="verticalAlign=top;align=left;overflow=fill;html=1;whiteSpace=wrap;strokeColor=#36393d;spacingTop=10;fontFamily=Helvetica;fontSize=12;fontStyle=1;fillColor=#cce5ff;" vertex="1" parent="1">
          <mxGeometry x="1610" y="670" width="260" height="110" as="geometry" />
        </mxCell>
        <mxCell id="YmU_lxn8cp2hs8feeezL-20" value="binds" style="edgeStyle=orthogonalEdgeStyle;rounded=0;endArrow=block;html=1;strokeColor=#3A3A3A;fontSize=11;" edge="1" parent="1" source="YmU_lxn8cp2hs8feeezL-1" target="YmU_lxn8cp2hs8feeezL-5">
          <mxGeometry relative="1" as="geometry" />
        </mxCell>
        <mxCell id="YmU_lxn8cp2hs8feeezL-21" value="binds" style="edgeStyle=orthogonalEdgeStyle;rounded=0;endArrow=block;html=1;strokeColor=#3A3A3A;fontSize=11;" edge="1" parent="1" source="YmU_lxn8cp2hs8feeezL-2" target="YmU_lxn8cp2hs8feeezL-6">
          <mxGeometry relative="1" as="geometry" />
        </mxCell>
        <mxCell id="YmU_lxn8cp2hs8feeezL-22" value="binds" style="edgeStyle=orthogonalEdgeStyle;rounded=0;endArrow=block;html=1;strokeColor=#3A3A3A;fontSize=11;" edge="1" parent="1" source="YmU_lxn8cp2hs8feeezL-3" target="YmU_lxn8cp2hs8feeezL-7">
          <mxGeometry relative="1" as="geometry" />
        </mxCell>
        <mxCell id="YmU_lxn8cp2hs8feeezL-23" value="binds" style="edgeStyle=orthogonalEdgeStyle;rounded=0;endArrow=block;html=1;strokeColor=#3A3A3A;fontSize=11;" edge="1" parent="1" source="YmU_lxn8cp2hs8feeezL-4" target="YmU_lxn8cp2hs8feeezL-8">
          <mxGeometry relative="1" as="geometry" />
        </mxCell>
        <mxCell id="YmU_lxn8cp2hs8feeezL-24" value="reads/writes" style="edgeStyle=orthogonalEdgeStyle;rounded=0;dashed=1;endArrow=open;html=1;strokeColor=#3A3A3A;fontSize=11;" edge="1" parent="1" source="YmU_lxn8cp2hs8feeezL-5" target="YmU_lxn8cp2hs8feeezL-9">
          <mxGeometry relative="1" as="geometry" />
        </mxCell>
        <mxCell id="YmU_lxn8cp2hs8feeezL-25" value="reads/writes" style="edgeStyle=orthogonalEdgeStyle;rounded=0;dashed=1;endArrow=open;html=1;strokeColor=#3A3A3A;fontSize=11;" edge="1" parent="1" source="YmU_lxn8cp2hs8feeezL-6" target="YmU_lxn8cp2hs8feeezL-10">
          <mxGeometry relative="1" as="geometry" />
        </mxCell>
        <mxCell id="YmU_lxn8cp2hs8feeezL-26" value="reads/writes" style="edgeStyle=orthogonalEdgeStyle;rounded=0;dashed=1;endArrow=open;html=1;strokeColor=#3A3A3A;fontSize=11;" edge="1" parent="1" source="YmU_lxn8cp2hs8feeezL-7" target="YmU_lxn8cp2hs8feeezL-11">
          <mxGeometry relative="1" as="geometry" />
        </mxCell>
        <mxCell id="YmU_lxn8cp2hs8feeezL-27" value="reads/writes" style="edgeStyle=orthogonalEdgeStyle;rounded=0;dashed=1;endArrow=open;html=1;strokeColor=#3A3A3A;fontSize=11;" edge="1" parent="1" source="YmU_lxn8cp2hs8feeezL-8" target="YmU_lxn8cp2hs8feeezL-12">
          <mxGeometry relative="1" as="geometry" />
        </mxCell>
        <mxCell id="YmU_lxn8cp2hs8feeezL-32" value="notify" style="edgeStyle=orthogonalEdgeStyle;rounded=0;dashed=1;endArrow=open;html=1;strokeColor=#3A3A3A;fontSize=11;" edge="1" parent="1" source="YmU_lxn8cp2hs8feeezL-18" target="YmU_lxn8cp2hs8feeezL-19">
          <mxGeometry relative="1" as="geometry" />
        </mxCell>
        <mxCell id="YmU_lxn8cp2hs8feeezL-33" value="persists 0..*" style="edgeStyle=orthogonalEdgeStyle;rounded=0;endArrow=block;html=1;strokeColor=#3A3A3A;fontSize=11;" edge="1" parent="1" source="YmU_lxn8cp2hs8feeezL-9" target="YmU_lxn8cp2hs8feeezL-13">
          <mxGeometry relative="1" as="geometry" />
        </mxCell>
        <mxCell id="YmU_lxn8cp2hs8feeezL-34" value="persists 0..*" style="edgeStyle=orthogonalEdgeStyle;rounded=0;endArrow=block;html=1;strokeColor=#3A3A3A;fontSize=11;" edge="1" parent="1" source="YmU_lxn8cp2hs8feeezL-10" target="YmU_lxn8cp2hs8feeezL-14">
          <mxGeometry relative="1" as="geometry" />
        </mxCell>
        <mxCell id="YmU_lxn8cp2hs8feeezL-35" value="persists 0..*" style="edgeStyle=orthogonalEdgeStyle;rounded=0;endArrow=block;html=1;strokeColor=#3A3A3A;fontSize=11;" edge="1" parent="1" source="YmU_lxn8cp2hs8feeezL-11" target="YmU_lxn8cp2hs8feeezL-15">
          <mxGeometry relative="1" as="geometry" />
        </mxCell>
        <mxCell id="YmU_lxn8cp2hs8feeezL-36" value="persists 0..*" style="edgeStyle=orthogonalEdgeStyle;rounded=0;endArrow=block;html=1;strokeColor=#3A3A3A;fontSize=11;" edge="1" parent="1" source="YmU_lxn8cp2hs8feeezL-12" target="YmU_lxn8cp2hs8feeezL-16">
          <mxGeometry relative="1" as="geometry" />
        </mxCell>
        <mxCell id="YmU_lxn8cp2hs8feeezL-37" value="contains *" style="edgeStyle=orthogonalEdgeStyle;rounded=0;endArrow=diamondThin;endFill=1;html=1;strokeColor=#3A3A3A;fontSize=11;" edge="1" parent="1" source="YmU_lxn8cp2hs8feeezL-14" target="YmU_lxn8cp2hs8feeezL-17">
          <mxGeometry relative="1" as="geometry">
            <mxPoint x="1930" y="620" as="targetPoint" />
          </mxGeometry>
        </mxCell>
        <mxCell id="YmU_lxn8cp2hs8feeezL-38" value="." style="text;html=1;align=center;verticalAlign=middle;whiteSpace=wrap;rounded=0;" vertex="1" parent="1">
          <mxGeometry x="330" y="270" width="60" height="30" as="geometry" />
        </mxCell>
        <mxCell id="YmU_lxn8cp2hs8feeezL-39" value="." style="text;html=1;align=center;verticalAlign=middle;whiteSpace=wrap;rounded=0;" vertex="1" parent="1">
          <mxGeometry x="2190" y="250" width="60" height="30" as="geometry" />
        </mxCell>
        <mxCell id="YmU_lxn8cp2hs8feeezL-40" value="." style="text;html=1;align=center;verticalAlign=middle;whiteSpace=wrap;rounded=0;" vertex="1" parent="1">
          <mxGeometry x="1480" y="1470" width="60" height="30" as="geometry" />
        </mxCell>
        <mxCell id="YmU_lxn8cp2hs8feeezL-43" value="." style="text;html=1;align=center;verticalAlign=middle;resizable=0;points=[];autosize=1;strokeColor=none;fillColor=none;" vertex="1" parent="1">
          <mxGeometry x="1855" y="328" width="30" height="30" as="geometry" />
        </mxCell>
        <mxCell id="YmU_lxn8cp2hs8feeezL-44" value="save/list" style="edgeStyle=orthogonalEdgeStyle;rounded=0;dashed=1;endArrow=open;html=1;strokeColor=#3A3A3A;fontSize=11;entryX=1.001;entryY=0.583;entryDx=0;entryDy=0;entryPerimeter=0;exitX=0.575;exitY=1.023;exitDx=0;exitDy=0;exitPerimeter=0;" edge="1" parent="1" source="YmU_lxn8cp2hs8feeezL-19" target="YmU_lxn8cp2hs8feeezL-12">
          <mxGeometry relative="1" as="geometry">
            <mxPoint x="1690" y="710" as="sourcePoint" />
            <mxPoint x="1910" y="1000" as="targetPoint" />
            <Array as="points">
              <mxPoint x="1760" y="1412" />
            </Array>
          </mxGeometry>
        </mxCell>
        <mxCell id="YmU_lxn8cp2hs8feeezL-46" value="read window" style="edgeStyle=orthogonalEdgeStyle;rounded=0;dashed=1;endArrow=open;html=1;strokeColor=#000000;fontSize=11;entryX=0.995;entryY=0.394;entryDx=0;entryDy=0;fillColor=#d80073;entryPerimeter=0;exitX=0.25;exitY=1;exitDx=0;exitDy=0;" edge="1" parent="1" source="YmU_lxn8cp2hs8feeezL-19" target="YmU_lxn8cp2hs8feeezL-11">
          <mxGeometry x="0.1783" y="-10" relative="1" as="geometry">
            <mxPoint x="2050" y="1282" as="sourcePoint" />
            <mxPoint x="2110" y="1005" as="targetPoint" />
            <Array as="points">
              <mxPoint x="1670" y="780" />
              <mxPoint x="1670" y="1005" />
              <mxPoint x="1509" y="1005" />
            </Array>
            <mxPoint as="offset" />
          </mxGeometry>
        </mxCell>
        <mxCell id="YmU_lxn8cp2hs8feeezL-47" value="read window" style="edgeStyle=orthogonalEdgeStyle;rounded=0;dashed=1;endArrow=open;html=1;strokeColor=#000000;fontSize=11;fillColor=#a20025;exitX=0.25;exitY=0;exitDx=0;exitDy=0;entryX=1;entryY=0.5;entryDx=0;entryDy=0;" edge="1" parent="1" source="YmU_lxn8cp2hs8feeezL-19" target="YmU_lxn8cp2hs8feeezL-10">
          <mxGeometry relative="1" as="geometry">
            <mxPoint x="1733" y="1027" as="sourcePoint" />
            <mxPoint x="1790" y="580" as="targetPoint" />
            <Array as="points">
              <mxPoint x="1675" y="620" />
            </Array>
          </mxGeometry>
        </mxCell>
        <mxCell id="YmU_lxn8cp2hs8feeezL-48" value="read window" style="edgeStyle=orthogonalEdgeStyle;rounded=0;dashed=1;endArrow=open;html=1;strokeColor=#000000;fontSize=11;entryX=1;entryY=0.5;entryDx=0;entryDy=0;fillColor=#a20025;exitX=0.5;exitY=0;exitDx=0;exitDy=0;" edge="1" parent="1" source="YmU_lxn8cp2hs8feeezL-19" target="YmU_lxn8cp2hs8feeezL-9">
          <mxGeometry relative="1" as="geometry">
            <mxPoint x="1960" y="1157" as="sourcePoint" />
            <mxPoint x="2020" y="540" as="targetPoint" />
            <Array as="points">
              <mxPoint x="1740" y="410" />
              <mxPoint x="1500" y="410" />
            </Array>
          </mxGeometry>
        </mxCell>
        <mxCell id="YmU_lxn8cp2hs8feeezL-49" value="." style="text;html=1;align=center;verticalAlign=middle;whiteSpace=wrap;rounded=0;" vertex="1" parent="1">
          <mxGeometry x="1300" y="100" width="60" height="30" as="geometry" />
        </mxCell>
        <mxCell id="YmU_lxn8cp2hs8feeezL-50" value="." style="text;html=1;align=center;verticalAlign=middle;whiteSpace=wrap;rounded=0;" vertex="1" parent="1">
          <mxGeometry x="1510" y="1660" width="60" height="30" as="geometry" />
        </mxCell>
      </root>
    </mxGraphModel>
  </diagram>
</mxfile>
